<?xml version="1.0" encoding="utf-8"?>
<!-- Generator: Adobe Illustrator 21.1.0, SVG Export Plug-In . SVG Version: 6.00 Build 0)  -->
<svg version="1.1" id="Layer_1" xmlns="http://www.w3.org/2000/svg" xmlns:xlink="http://www.w3.org/1999/xlink" x="0px" y="0px"
	 viewBox="0 0 24 24" style="enable-background:new 0 0 24 24;" xml:space="preserve">
<style type="text/css">
	.st0{fill:#FFFFFF;}
</style>
<path class="st0" d="M24,8c0-3.3-2.7-6-6-6c-0.5,0-0.9,0.1-1.4,0.2C15.5,0.8,13.9,0,12,0S8.5,0.8,7.4,2.2C6.9,2.1,6.5,2,6,2
	C2.7,2,0,4.7,0,8c0,2.6,1.7,4.8,4,5.7V23c0,0.6,0.4,1,1,1h14c0.6,0,1-0.4,1-1v-9.3C22.3,12.8,24,10.6,24,8z M18,22H6v-2h12V22z
	 M18,12v7H6v-7c-2.2,0-4-1.8-4-4s1.8-4,4-4c0.1,0,0.2,0,0.3,0C7,4.1,7.7,4.3,8.2,4.7C8.5,4,8.8,3.5,9.4,3C10.1,2.4,11,2,12,2
	s1.9,0.4,2.6,1c0.5,0.4,0.9,1,1.1,1.7c0.6-0.4,1.3-0.6,2-0.7c0.1,0,0.2,0,0.3,0c2.2,0,4,1.8,4,4S20.2,12,18,12z"/>
</svg>
