<svg id="Arrow" xmlns="http://www.w3.org/2000/svg" viewBox="0 0 501.77 500.08"><defs><style>.cls-1{fill:#fff;}.cls-2{fill:none;}</style></defs><title>magnifier</title><path class="cls-1" d="M4.57,495.5a15.63,15.63,0,0,0,22.1,0l151.7-152.7a194.54,194.54,0,0,0,128,48c107.9,0,195.4-87.5,195.4-195.4S414.27,0,306.37,0,111.07,87.5,111,195.4a194.57,194.57,0,0,0,45.4,125.1L4.58,473.3A15.75,15.75,0,0,0,4.57,495.5ZM142,195.4A164.39,164.39,0,0,1,306.35,31h0c90.8,0,164.4,73.6,164.4,164.3A164.39,164.39,0,0,1,306.39,359.7h0c-90.7,0-164.29-73.5-164.39-164.3Z" transform="translate(0)"/><circle class="cls-2" cx="306.37" cy="195.4" r="164.4"/></svg>